<?xml version="1.0" encoding="UTF-8"?>
<svg width="17px" height="18px" viewBox="0 0 17 18" version="1.1" xmlns="http://www.w3.org/2000/svg" xmlns:xlink="http://www.w3.org/1999/xlink">
    <title>Search</title>
    <g id="Page-1" stroke="none" stroke-width="1" fill="none" fill-rule="evenodd">
        <g id="Home-Copy" transform="translate(-1187.000000, -246.000000)" fill="#FFFFFF">
            <g id="main-hero" transform="translate(1.000000, 0.000000)">
                <g id="main-headers" transform="translate(92.000000, 222.000000)">
                    <g id="big-search-component" transform="translate(118.000000, 0.000000)">
                        <g id="Group-2" transform="translate(960.000000, 8.000000)">
                            <g id="Search" transform="translate(16.000000, 16.000000)">
                                <path d="M16.7271429,16.5385714 L12.7671429,12.6 C15.5418382,9.80814463 15.6263874,5.32654357 12.9589704,2.43201814 C10.2915535,-0.46250729 5.81797866,-0.743621031 2.80919874,1.79421942 C-0.199581175,4.33205987 -0.67671796,8.78899123 1.72665746,11.90623 C4.13003287,15.0234687 8.5617356,15.6957094 11.7814286,13.4314286 L15.8185714,17.4685714 C16.0718655,17.7045933 16.4665798,17.697629 16.7113901,17.4528187 C16.9562005,17.2080083 16.9631647,16.8132941 16.7271429,16.56 L16.7271429,16.5385714 Z M1.59428571,7.45714286 C1.59428571,4.14343436 4.28057722,1.45714286 7.59428571,1.45714286 C10.9079942,1.45714286 13.5942857,4.14343436 13.5942857,7.45714286 C13.5942857,10.7708514 10.9079942,13.4571429 7.59428571,13.4571429 C4.28057722,13.4571429 1.59428571,10.7708514 1.59428571,7.45714286 Z" id="Shape"></path>
                            </g>
                        </g>
                    </g>
                </g>
            </g>
        </g>
    </g>
</svg>