<?xml version="1.0" encoding="UTF-8"?>
<svg width="20px" height="24px" viewBox="0 0 20 24" version="1.1" xmlns="http://www.w3.org/2000/svg" xmlns:xlink="http://www.w3.org/1999/xlink">
    <title>Book Copy</title>
    <g id="Page-1" stroke="none" stroke-width="1" fill="none" fill-rule="evenodd">
        <g id="Book-Copy" fill="#FFFFFF">
            <path d="M17.9306667,0.213333333 L5.26933333,0.213333333 C4.93759028,0.215796764 4.60892482,0.277195806 4.29866667,0.394666667 L4.11733333,0.213333333 L3.38133333,0.949333333 L3.264,1.06666667 L1.376,2.95466667 C1.23739156,3.06786316 1.11052982,3.19472489 0.997333333,3.33333333 L0.384,3.94666667 L0.586666667,4.00533333 C0.454362599,4.32500526 0.385527809,4.66736777 0.384,5.01333333 L0.384,21.0133333 C0.384,22.4860927 1.57790733,23.68 3.05066667,23.68 L14.2506667,23.68 C14.703533,23.6772917 15.1480557,23.5578951 15.5413333,23.3333333 L15.9306667,23.6586667 L17.856,21.3493333 C18.8865165,20.9618517 19.5729697,19.9809017 19.584,18.88 L19.584,0.213333333 L17.9306667,0.213333333 Z M17.984,1.81333333 L17.984,18.88 C17.9784505,19.1745558 17.8463045,19.4524512 17.6213333,19.6426667 L17.3706667,19.4346667 L16.9546667,19.936 L16.9173333,19.936 L16.9173333,2.336 L4.28266667,2.336 C4.50181953,2.00457006 4.87200409,1.8044703 5.26933333,1.80266667 L17.984,1.81333333 Z M9.45066667,3.94666667 L11.584,3.94666667 L11.584,8.68266667 L10.3466667,7.69066667 L9.45066667,8.51733333 L9.45066667,3.94666667 Z M3.05066667,22.08 C2.46156293,22.08 1.984,21.6024371 1.984,21.0133333 L1.984,5.01333333 C1.984,4.4242296 2.46156293,3.94666667 3.05066667,3.94666667 L7.85066667,3.94666667 L7.85066667,12.176 L10.4213333,9.80266667 L13.184,12.0106667 L13.184,3.94666667 L15.3173333,3.94666667 L15.3173333,21.0133333 C15.3173333,21.6024371 14.8397704,22.08 14.2506667,22.08 L3.05066667,22.08 Z" id="Shape"></path>
        </g>
    </g>
</svg>