<?xml version="1.0" encoding="UTF-8"?>
<svg width="63px" height="22px" viewBox="0 0 63 22" version="1.1" xmlns="http://www.w3.org/2000/svg" xmlns:xlink="http://www.w3.org/1999/xlink">
    <title>mj(s)m copy</title>
    <g id="Symbols" stroke="none" stroke-width="1" fill="none" fill-rule="evenodd">
        <path d="M3.73,17 L3.73,10.378 C3.93533333,9.762 4.26166667,9.267 4.709,8.893 C5.15633333,8.519 5.61466667,8.332 6.084,8.332 C6.524,8.332 6.88333333,8.50433333 7.162,8.849 C7.44066667,9.19366667 7.58,9.74733333 7.58,10.51 L7.58,10.51 L7.58,17 L11.1,17 L11.1,10.378 C11.2026667,10.0846667 11.3383333,9.81333333 11.507,9.564 C11.6756667,9.31466667 11.8626667,9.09833333 12.068,8.915 C12.2733333,8.73166667 12.497,8.58866667 12.739,8.486 C12.981,8.38333333 13.2193333,8.332 13.454,8.332 C13.894,8.332 14.2533333,8.50433333 14.532,8.849 C14.8106667,9.19366667 14.95,9.74733333 14.95,10.51 L14.95,10.51 L14.95,17 L18.47,17 L18.47,9.608 C18.47,9.124 18.4296667,8.62533333 18.349,8.112 C18.2683333,7.59866667 18.1033333,7.12566667 17.854,6.693 C17.6046667,6.26033333 17.2563333,5.90833333 16.809,5.637 C16.3616667,5.36566667 15.7713333,5.23 15.038,5.23 C14.114,5.23 13.2926667,5.42433333 12.574,5.813 C11.8553333,6.20166667 11.276,6.75533333 10.836,7.474 C10.7626667,7.166 10.6453333,6.87633333 10.484,6.605 C10.3226667,6.33366667 10.11,6.09533333 9.846,5.89 C9.582,5.68466667 9.27033333,5.52333333 8.911,5.406 C8.55166667,5.28866667 8.13,5.23 7.646,5.23 C6.678,5.23 5.831,5.41333333 5.105,5.78 C4.379,6.14666667 3.80333333,6.682 3.378,7.386 L3.378,7.386 L3.378,5.45 L0.21,5.45 L0.21,17 L3.73,17 Z M24.41,4.13 L24.41,0.94 L20.89,0.94 L20.89,4.13 L24.41,4.13 Z M20.164,21.444 C20.7653333,21.444 21.3263333,21.334 21.847,21.114 C22.3676667,20.894 22.8186667,20.586 23.2,20.19 C23.5813333,19.794 23.8783333,19.3173333 24.091,18.76 C24.3036667,18.2026667 24.41,17.594 24.41,16.934 L24.41,16.934 L24.41,5.45 L20.89,5.45 L20.89,17.198 C20.89,17.5646667 20.78,17.858 20.56,18.078 C20.34,18.298 20.0613333,18.408 19.724,18.408 C19.504,18.408 19.2913333,18.3713333 19.086,18.298 C18.8806667,18.2246667 18.6973333,18.1073333 18.536,17.946 L18.536,17.946 L17.062,20.344 C17.4873333,20.7106667 17.964,20.9856667 18.492,21.169 C19.02,21.3523333 19.5773333,21.444 20.164,21.444 Z M28.91,17.594 L29.594,17.198 C28.862,16.118 28.292,15.023 27.884,13.913 C27.476,12.803 27.272,11.78 27.272,10.844 C27.272,10.28 27.344,9.686 27.488,9.062 C27.632,8.438 27.815,7.826 28.037,7.226 C28.259,6.626 28.508,6.059 28.784,5.525 C29.06,4.991 29.33,4.532 29.594,4.148 L29.594,4.148 L28.892,3.788 C28.556,4.364 28.238,4.937 27.938,5.507 C27.638,6.077 27.377,6.65 27.155,7.226 C26.933,7.802 26.756,8.387 26.624,8.981 C26.492,9.575 26.426,10.178 26.426,10.79 C26.426,11.918 26.648,13.052 27.092,14.192 C27.536,15.332 28.142,16.466 28.91,17.594 L28.91,17.594 Z M34.58,17.18 C35.672,17.18 36.545,16.931 37.199,16.433 C37.853,15.935 38.18,15.266 38.18,14.426 C38.18,14.018 38.099,13.682 37.937,13.418 C37.775,13.154 37.541,12.926 37.235,12.734 C36.929,12.542 36.548,12.38 36.092,12.248 C35.636,12.116 35.114,11.978 34.526,11.834 C34.094,11.726 33.722,11.627 33.41,11.537 C33.098,11.447 32.843,11.342 32.645,11.222 C32.447,11.102 32.303,10.958 32.213,10.79 C32.123,10.622 32.078,10.4 32.078,10.124 C32.078,9.788 32.144,9.497 32.276,9.251 C32.408,9.005 32.588,8.804 32.816,8.648 C33.044,8.492 33.311,8.378 33.617,8.306 C33.923,8.234 34.25,8.198 34.598,8.198 C35.162,8.198 35.693,8.288 36.191,8.468 C36.689,8.648 37.094,8.918 37.406,9.278 L37.406,9.278 L37.91,8.792 C37.598,8.408 37.16,8.093 36.596,7.847 C36.032,7.601 35.384,7.478 34.652,7.478 C34.184,7.478 33.743,7.535 33.329,7.649 C32.915,7.763 32.549,7.934 32.231,8.162 C31.913,8.39 31.664,8.678 31.484,9.026 C31.304,9.374 31.214,9.782 31.214,10.25 C31.214,10.622 31.277,10.928 31.403,11.168 C31.529,11.408 31.718,11.612 31.97,11.78 C32.222,11.948 32.543,12.092 32.933,12.212 C33.323,12.332 33.782,12.452 34.31,12.572 C34.802,12.692 35.234,12.806 35.606,12.914 C35.978,13.022 36.29,13.145 36.542,13.283 C36.794,13.421 36.983,13.589 37.109,13.787 C37.235,13.985 37.298,14.228 37.298,14.516 C37.298,15.128 37.049,15.605 36.551,15.947 C36.053,16.289 35.396,16.46 34.58,16.46 C33.932,16.46 33.338,16.352 32.798,16.136 C32.258,15.92 31.736,15.584 31.232,15.128 L31.232,15.128 L30.782,15.74 C31.274,16.22 31.85,16.58 32.51,16.82 C33.17,17.06 33.86,17.18 34.58,17.18 Z M40.16,17.594 C40.928,16.466 41.531,15.332 41.969,14.192 C42.407,13.052 42.626,11.918 42.626,10.79 C42.626,10.178 42.563,9.575 42.437,8.981 C42.311,8.387 42.134,7.802 41.906,7.226 C41.678,6.65 41.414,6.077 41.114,5.507 C40.814,4.937 40.496,4.364 40.16,3.788 L40.16,3.788 L39.458,4.148 C39.722,4.532 39.989,4.991 40.259,5.525 C40.529,6.059 40.778,6.626 41.006,7.226 C41.234,7.826 41.42,8.438 41.564,9.062 C41.708,9.686 41.78,10.28 41.78,10.844 C41.78,11.78 41.576,12.803 41.168,13.913 C40.76,15.023 40.196,16.118 39.476,17.198 L39.476,17.198 L40.16,17.594 Z M48.184,17 L48.184,10.378 C48.3893333,9.762 48.7156667,9.267 49.163,8.893 C49.6103333,8.519 50.0686667,8.332 50.538,8.332 C50.978,8.332 51.3373333,8.50433333 51.616,8.849 C51.8946667,9.19366667 52.034,9.74733333 52.034,10.51 L52.034,10.51 L52.034,17 L55.554,17 L55.554,10.378 C55.6566667,10.0846667 55.7923333,9.81333333 55.961,9.564 C56.1296667,9.31466667 56.3166667,9.09833333 56.522,8.915 C56.7273333,8.73166667 56.951,8.58866667 57.193,8.486 C57.435,8.38333333 57.6733333,8.332 57.908,8.332 C58.348,8.332 58.7073333,8.50433333 58.986,8.849 C59.2646667,9.19366667 59.404,9.74733333 59.404,10.51 L59.404,10.51 L59.404,17 L62.924,17 L62.924,9.608 C62.924,9.124 62.8836667,8.62533333 62.803,8.112 C62.7223333,7.59866667 62.5573333,7.12566667 62.308,6.693 C62.0586667,6.26033333 61.7103333,5.90833333 61.263,5.637 C60.8156667,5.36566667 60.2253333,5.23 59.492,5.23 C58.568,5.23 57.7466667,5.42433333 57.028,5.813 C56.3093333,6.20166667 55.73,6.75533333 55.29,7.474 C55.2166667,7.166 55.0993333,6.87633333 54.938,6.605 C54.7766667,6.33366667 54.564,6.09533333 54.3,5.89 C54.036,5.68466667 53.7243333,5.52333333 53.365,5.406 C53.0056667,5.28866667 52.584,5.23 52.1,5.23 C51.132,5.23 50.285,5.41333333 49.559,5.78 C48.833,6.14666667 48.2573333,6.682 47.832,7.386 L47.832,7.386 L47.832,5.45 L44.664,5.45 L44.664,17 L48.184,17 Z" id="mj(s)m-copy" fill="#FFFFFF" fill-rule="nonzero"></path>
    </g>
</svg>