<?xml version="1.0" encoding="UTF-8"?>
<svg width="63px" height="22px" viewBox="0 0 63 22" version="1.1" xmlns="http://www.w3.org/2000/svg" xmlns:xlink="http://www.w3.org/1999/xlink">
    <title>mj(s)m</title>
    <g id="Symbols" stroke="none" stroke-width="1" fill="none" fill-rule="evenodd">
        <g id="navbar/scroll" transform="translate(-106.000000, -31.000000)" fill="#273053" fill-rule="nonzero">
            <g id="navbar/logout/home">
                <path d="M109.73,48 L109.73,41.378 C109.935333,40.762 110.261667,40.267 110.709,39.893 C111.156333,39.519 111.614667,39.332 112.084,39.332 C112.524,39.332 112.883333,39.5043333 113.162,39.849 C113.440667,40.1936667 113.58,40.7473333 113.58,41.51 L113.58,41.51 L113.58,48 L117.1,48 L117.1,41.378 C117.202667,41.0846667 117.338333,40.8133333 117.507,40.564 C117.675667,40.3146667 117.862667,40.0983333 118.068,39.915 C118.273333,39.7316667 118.497,39.5886667 118.739,39.486 C118.981,39.3833333 119.219333,39.332 119.454,39.332 C119.894,39.332 120.253333,39.5043333 120.532,39.849 C120.810667,40.1936667 120.95,40.7473333 120.95,41.51 L120.95,41.51 L120.95,48 L124.47,48 L124.47,40.608 C124.47,40.124 124.429667,39.6253333 124.349,39.112 C124.268333,38.5986667 124.103333,38.1256667 123.854,37.693 C123.604667,37.2603333 123.256333,36.9083333 122.809,36.637 C122.361667,36.3656667 121.771333,36.23 121.038,36.23 C120.114,36.23 119.292667,36.4243333 118.574,36.813 C117.855333,37.2016667 117.276,37.7553333 116.836,38.474 C116.762667,38.166 116.645333,37.8763333 116.484,37.605 C116.322667,37.3336667 116.11,37.0953333 115.846,36.89 C115.582,36.6846667 115.270333,36.5233333 114.911,36.406 C114.551667,36.2886667 114.13,36.23 113.646,36.23 C112.678,36.23 111.831,36.4133333 111.105,36.78 C110.379,37.1466667 109.803333,37.682 109.378,38.386 L109.378,38.386 L109.378,36.45 L106.21,36.45 L106.21,48 L109.73,48 Z M130.41,35.13 L130.41,31.94 L126.89,31.94 L126.89,35.13 L130.41,35.13 Z M126.164,52.444 C126.765333,52.444 127.326333,52.334 127.847,52.114 C128.367667,51.894 128.818667,51.586 129.2,51.19 C129.581333,50.794 129.878333,50.3173333 130.091,49.76 C130.303667,49.2026667 130.41,48.594 130.41,47.934 L130.41,47.934 L130.41,36.45 L126.89,36.45 L126.89,48.198 C126.89,48.5646667 126.78,48.858 126.56,49.078 C126.34,49.298 126.061333,49.408 125.724,49.408 C125.504,49.408 125.291333,49.3713333 125.086,49.298 C124.880667,49.2246667 124.697333,49.1073333 124.536,48.946 L124.536,48.946 L123.062,51.344 C123.487333,51.7106667 123.964,51.9856667 124.492,52.169 C125.02,52.3523333 125.577333,52.444 126.164,52.444 Z M134.91,48.594 L135.594,48.198 C134.862,47.118 134.292,46.023 133.884,44.913 C133.476,43.803 133.272,42.78 133.272,41.844 C133.272,41.28 133.344,40.686 133.488,40.062 C133.632,39.438 133.815,38.826 134.037,38.226 C134.259,37.626 134.508,37.059 134.784,36.525 C135.06,35.991 135.33,35.532 135.594,35.148 L135.594,35.148 L134.892,34.788 C134.556,35.364 134.238,35.937 133.938,36.507 C133.638,37.077 133.377,37.65 133.155,38.226 C132.933,38.802 132.756,39.387 132.624,39.981 C132.492,40.575 132.426,41.178 132.426,41.79 C132.426,42.918 132.648,44.052 133.092,45.192 C133.536,46.332 134.142,47.466 134.91,48.594 L134.91,48.594 Z M140.58,48.18 C141.672,48.18 142.545,47.931 143.199,47.433 C143.853,46.935 144.18,46.266 144.18,45.426 C144.18,45.018 144.099,44.682 143.937,44.418 C143.775,44.154 143.541,43.926 143.235,43.734 C142.929,43.542 142.548,43.38 142.092,43.248 C141.636,43.116 141.114,42.978 140.526,42.834 C140.094,42.726 139.722,42.627 139.41,42.537 C139.098,42.447 138.843,42.342 138.645,42.222 C138.447,42.102 138.303,41.958 138.213,41.79 C138.123,41.622 138.078,41.4 138.078,41.124 C138.078,40.788 138.144,40.497 138.276,40.251 C138.408,40.005 138.588,39.804 138.816,39.648 C139.044,39.492 139.311,39.378 139.617,39.306 C139.923,39.234 140.25,39.198 140.598,39.198 C141.162,39.198 141.693,39.288 142.191,39.468 C142.689,39.648 143.094,39.918 143.406,40.278 L143.406,40.278 L143.91,39.792 C143.598,39.408 143.16,39.093 142.596,38.847 C142.032,38.601 141.384,38.478 140.652,38.478 C140.184,38.478 139.743,38.535 139.329,38.649 C138.915,38.763 138.549,38.934 138.231,39.162 C137.913,39.39 137.664,39.678 137.484,40.026 C137.304,40.374 137.214,40.782 137.214,41.25 C137.214,41.622 137.277,41.928 137.403,42.168 C137.529,42.408 137.718,42.612 137.97,42.78 C138.222,42.948 138.543,43.092 138.933,43.212 C139.323,43.332 139.782,43.452 140.31,43.572 C140.802,43.692 141.234,43.806 141.606,43.914 C141.978,44.022 142.29,44.145 142.542,44.283 C142.794,44.421 142.983,44.589 143.109,44.787 C143.235,44.985 143.298,45.228 143.298,45.516 C143.298,46.128 143.049,46.605 142.551,46.947 C142.053,47.289 141.396,47.46 140.58,47.46 C139.932,47.46 139.338,47.352 138.798,47.136 C138.258,46.92 137.736,46.584 137.232,46.128 L137.232,46.128 L136.782,46.74 C137.274,47.22 137.85,47.58 138.51,47.82 C139.17,48.06 139.86,48.18 140.58,48.18 Z M146.16,48.594 C146.928,47.466 147.531,46.332 147.969,45.192 C148.407,44.052 148.626,42.918 148.626,41.79 C148.626,41.178 148.563,40.575 148.437,39.981 C148.311,39.387 148.134,38.802 147.906,38.226 C147.678,37.65 147.414,37.077 147.114,36.507 C146.814,35.937 146.496,35.364 146.16,34.788 L146.16,34.788 L145.458,35.148 C145.722,35.532 145.989,35.991 146.259,36.525 C146.529,37.059 146.778,37.626 147.006,38.226 C147.234,38.826 147.42,39.438 147.564,40.062 C147.708,40.686 147.78,41.28 147.78,41.844 C147.78,42.78 147.576,43.803 147.168,44.913 C146.76,46.023 146.196,47.118 145.476,48.198 L145.476,48.198 L146.16,48.594 Z M154.184,48 L154.184,41.378 C154.389333,40.762 154.715667,40.267 155.163,39.893 C155.610333,39.519 156.068667,39.332 156.538,39.332 C156.978,39.332 157.337333,39.5043333 157.616,39.849 C157.894667,40.1936667 158.034,40.7473333 158.034,41.51 L158.034,41.51 L158.034,48 L161.554,48 L161.554,41.378 C161.656667,41.0846667 161.792333,40.8133333 161.961,40.564 C162.129667,40.3146667 162.316667,40.0983333 162.522,39.915 C162.727333,39.7316667 162.951,39.5886667 163.193,39.486 C163.435,39.3833333 163.673333,39.332 163.908,39.332 C164.348,39.332 164.707333,39.5043333 164.986,39.849 C165.264667,40.1936667 165.404,40.7473333 165.404,41.51 L165.404,41.51 L165.404,48 L168.924,48 L168.924,40.608 C168.924,40.124 168.883667,39.6253333 168.803,39.112 C168.722333,38.5986667 168.557333,38.1256667 168.308,37.693 C168.058667,37.2603333 167.710333,36.9083333 167.263,36.637 C166.815667,36.3656667 166.225333,36.23 165.492,36.23 C164.568,36.23 163.746667,36.4243333 163.028,36.813 C162.309333,37.2016667 161.73,37.7553333 161.29,38.474 C161.216667,38.166 161.099333,37.8763333 160.938,37.605 C160.776667,37.3336667 160.564,37.0953333 160.3,36.89 C160.036,36.6846667 159.724333,36.5233333 159.365,36.406 C159.005667,36.2886667 158.584,36.23 158.1,36.23 C157.132,36.23 156.285,36.4133333 155.559,36.78 C154.833,37.1466667 154.257333,37.682 153.832,38.386 L153.832,38.386 L153.832,36.45 L150.664,36.45 L150.664,48 L154.184,48 Z" id="mj(s)m"></path>
            </g>
        </g>
    </g>
</svg>